<svg width="39" height="22" viewBox="0 0 39 22" fill="none" xmlns="http://www.w3.org/2000/svg">
<path d="M33.9995 9C33.7231 9.00063 33.4472 9.02362 33.1745 9.06875L32.447 7.17625C32.9562 7.05937 33.477 7.00025 33.9995 7C34.2647 7 34.519 6.89464 34.7066 6.70711C34.8941 6.51957 34.9995 6.26522 34.9995 6C34.9995 5.73478 34.8941 5.48043 34.7066 5.29289C34.519 5.10536 34.2647 5 33.9995 5H31.6095L29.9332 0.64125C29.8607 0.452485 29.7326 0.29015 29.5659 0.175668C29.3992 0.0611861 29.2017 -6.39142e-05 28.9995 5.00479e-08H24.9995C24.7343 5.00479e-08 24.4799 0.105357 24.2924 0.292893C24.1048 0.48043 23.9995 0.734784 23.9995 1C23.9995 1.26522 24.1048 1.51957 24.2924 1.70711C24.4799 1.89464 24.7343 2 24.9995 2H28.3132L29.467 5H25.9995C23.687 5 21.812 5.53875 20.5782 6.5575C20.2879 6.79171 19.9378 6.94005 19.5676 6.98578C19.1974 7.0315 18.8218 6.97278 18.4832 6.81625C17.1607 6.215 10.8907 3.66625 10.3382 3.45L9.62447 3.17C9.42558 3.08305 9.215 3.02577 8.99947 3C8.76633 3.00056 8.54071 3.08257 8.36163 3.23183C8.18254 3.3811 8.06123 3.58825 8.01868 3.81748C7.97613 4.0467 8.015 4.28358 8.12858 4.48718C8.24216 4.69078 8.42331 4.8483 8.64072 4.9325C8.69822 4.955 14.5395 7.22 17.657 8.63625C18.3369 8.9456 19.0897 9.0593 19.8307 8.96457C20.5717 8.86985 21.2717 8.57045 21.852 8.1C22.4595 7.6 23.6732 7 26.0007 7H28.3532C26.8934 8.17187 25.837 9.77119 25.332 11.5737C25.211 11.9877 24.9583 12.3509 24.6123 12.6083C24.2662 12.8657 23.8457 13.0032 23.4145 13H16.8995C16.6517 11.786 15.9619 10.7072 14.9639 9.9728C13.9659 9.23843 12.7307 8.90078 11.4979 9.02532C10.2651 9.14986 9.12249 9.72771 8.29153 10.6468C7.46057 11.566 7.00049 12.7609 7.00049 14C7.00049 15.2391 7.46057 16.434 8.29153 17.3532C9.12249 18.2723 10.2651 18.8501 11.4979 18.9747C12.7307 19.0992 13.9659 18.7616 14.9639 18.0272C15.9619 17.2928 16.6517 16.214 16.8995 15H23.4145C24.2818 15.0019 25.1261 14.7211 25.8195 14.2C26.5129 13.679 27.0175 12.9461 27.257 12.1125C27.5064 11.2258 27.9284 10.397 28.4988 9.67375C29.0691 8.95045 29.7766 8.34683 30.5807 7.8975L31.3082 9.78875C30.2947 10.4375 29.5491 11.43 29.2083 12.5841C28.8676 13.7382 28.9544 14.9765 29.4531 16.0717C29.9517 17.1669 30.8286 18.0456 31.9228 18.5464C33.017 19.0472 34.2551 19.1366 35.4099 18.7982C36.5647 18.4597 37.5587 17.7161 38.2095 16.7039C38.8602 15.6917 39.1241 14.4787 38.9526 13.2876C38.7812 12.0965 38.1859 11.0072 37.2761 10.2196C36.3662 9.43202 35.2028 8.99899 33.9995 9ZM11.9995 15H14.827C14.5911 15.6672 14.1269 16.2296 13.5165 16.5876C12.9061 16.9457 12.1887 17.0765 11.4912 16.9568C10.7937 16.8371 10.161 16.4747 9.70486 15.9337C9.24872 15.3926 8.99854 14.7077 8.99854 14C8.99854 13.2923 9.24872 12.6074 9.70486 12.0663C10.161 11.5253 10.7937 11.1629 11.4912 11.0432C12.1887 10.9235 12.9061 11.0543 13.5165 11.4124C14.1269 11.7704 14.5911 12.3328 14.827 13H11.9995C11.7343 13 11.4799 13.1054 11.2924 13.2929C11.1048 13.4804 10.9995 13.7348 10.9995 14C10.9995 14.2652 11.1048 14.5196 11.2924 14.7071C11.4799 14.8946 11.7343 15 11.9995 15ZM33.9995 17C33.3867 16.9992 32.7888 16.8108 32.2863 16.4601C31.7838 16.1095 31.4007 15.6133 31.1886 15.0384C30.9765 14.4635 30.9456 13.8374 31.0999 13.2444C31.2543 12.6514 31.5865 12.1198 32.052 11.7213L33.0657 14.3587C33.1609 14.6064 33.3505 14.8061 33.5929 14.9139C33.8353 15.0218 34.1106 15.0289 34.3582 14.9338C34.6059 14.8386 34.8056 14.649 34.9134 14.4066C35.0212 14.1642 35.0284 13.8889 34.9332 13.6413L33.9182 11H33.9995C34.7951 11 35.5582 11.3161 36.1208 11.8787C36.6834 12.4413 36.9995 13.2044 36.9995 14C36.9995 14.7956 36.6834 15.5587 36.1208 16.1213C35.5582 16.6839 34.7951 17 33.9995 17Z" fill="#2D2E2B"/>
<path d="M25.5007 13C25.3532 13 25.207 13.0075 25.062 13.0212L20.9495 0.68375C20.8831 0.484631 20.7557 0.311446 20.5855 0.188729C20.4152 0.0660121 20.2106 -1.55528e-05 20.0007 2.74804e-09H16.0007C15.7355 2.74804e-09 15.4811 0.105357 15.2936 0.292893C15.1061 0.48043 15.0007 0.734784 15.0007 1C15.0007 1.26522 15.1061 1.51957 15.2936 1.70711C15.4811 1.89464 15.7355 2 16.0007 2H19.2795L21.4595 8.53875L14.527 17H8.97197C8.84871 15.9011 8.32516 14.8861 7.50124 14.1486C6.67731 13.4111 5.61069 13.0028 4.50492 13.0016C3.39914 13.0004 2.33164 13.4064 1.5061 14.1421C0.68057 14.8777 0.154813 15.8916 0.0291588 16.9902C-0.096495 18.0889 0.186753 19.1953 0.82485 20.0984C1.46295 21.0015 2.41122 21.638 3.48871 21.8865C4.5662 22.135 5.69747 21.9781 6.66664 21.4457C7.6358 20.9133 8.37502 20.0427 8.74322 19H15.0007C15.1488 19 15.295 18.9672 15.4288 18.9039C15.5626 18.8405 15.6806 18.7483 15.7745 18.6338L22.207 10.7825L23.1645 13.6575C22.236 14.2234 21.5438 15.1064 21.2159 16.1432C20.8881 17.18 20.9467 18.3004 21.381 19.2973C21.8153 20.2942 22.5959 21.1001 23.5784 21.566C24.5609 22.0319 25.6789 22.1263 26.7256 21.8317C27.7723 21.5371 28.677 20.8735 29.2723 19.9636C29.8676 19.0536 30.1132 17.9589 29.9639 16.8818C29.8145 15.8047 29.2801 14.8182 28.4597 14.1046C27.6392 13.391 26.5881 12.9986 25.5007 13ZM4.50072 20C4.00626 20 3.52291 19.8534 3.11179 19.5787C2.70067 19.304 2.38024 18.9135 2.19102 18.4567C2.0018 17.9999 1.95229 17.4972 2.04875 17.0123C2.14522 16.5273 2.38332 16.0819 2.73295 15.7322C3.08258 15.3826 3.52804 15.1445 4.01299 15.048C4.49794 14.9516 5.00061 15.0011 5.45743 15.1903C5.91424 15.3795 6.30469 15.7 6.57939 16.1111C6.85409 16.5222 7.00072 17.0055 7.00072 17.5C7.00072 17.8283 6.93605 18.1534 6.81042 18.4567C6.68478 18.76 6.50063 19.0356 6.26848 19.2678C6.03634 19.4999 5.76074 19.6841 5.45743 19.8097C5.15411 19.9353 4.82902 20 4.50072 20ZM25.5007 20C25.0063 20 24.5229 19.8534 24.1118 19.5787C23.7007 19.304 23.3802 18.9135 23.191 18.4567C23.0018 17.9999 22.9523 17.4972 23.0488 17.0123C23.1452 16.5273 23.3833 16.0819 23.733 15.7322C24.0826 15.3826 24.528 15.1445 25.013 15.048C25.4979 14.9516 26.0006 15.0011 26.4574 15.1903C26.9142 15.3795 27.3047 15.7 27.5794 16.1111C27.8541 16.5222 28.0007 17.0055 28.0007 17.5C28.0007 17.8283 27.9361 18.1534 27.8104 18.4567C27.6848 18.76 27.5006 19.0356 27.2685 19.2678C27.0363 19.4999 26.7607 19.6841 26.4574 19.8097C26.1541 19.9353 25.829 20 25.5007 20Z" fill="#1A8D5B"/>
</svg>
