<svg width="631" height="466" viewBox="0 0 631 466" fill="none" xmlns="http://www.w3.org/2000/svg">
<path d="M39.9964 445C31.9588 445 24.8781 443.405 18.7543 440.216C12.758 437.027 8.10134 432.435 4.78426 426.44C1.59475 420.445 0 413.556 0 405.775V347.034C0 339.125 1.59475 332.236 4.78426 326.369C8.10134 320.373 12.758 315.845 18.7543 312.784C24.8781 309.595 31.9588 308 39.9964 308C48.0339 308 55.0508 309.595 61.0471 312.784C67.171 315.845 71.8914 320.373 75.2085 326.369C78.5256 332.236 80.1841 339.125 80.1841 347.034C80.1841 349.276 78.4094 351.116 76.1686 351.197L54.6334 351.975C51.2369 352.098 48.4167 349.378 48.4167 345.979V344.737C48.4167 341.804 47.6512 339.507 46.1202 337.849C44.5893 336.063 42.548 335.17 39.9964 335.17C37.5724 335.17 35.5949 336.063 34.0639 337.849C32.5329 339.507 31.7675 341.804 31.7675 344.737V408.454C31.7675 411.26 32.5329 413.556 34.0639 415.342C35.5949 417 37.5724 417.83 39.9964 417.83C42.548 417.83 44.5893 417 46.1202 415.342C47.6512 413.556 48.4167 411.26 48.4167 408.454V406.83C48.4167 403.431 51.2369 400.711 54.6334 400.834L76.1686 401.612C78.4094 401.693 80.1841 403.533 80.1841 405.775C80.1841 413.556 78.5256 420.445 75.2085 426.44C71.8914 432.435 67.171 437.027 61.0471 440.216C55.0508 443.405 48.0339 445 39.9964 445Z" fill="#FAFDF3"/>
<path d="M115.914 394.123C115.914 393.476 115.809 392.834 115.604 392.221L90.6138 317.432C89.3153 313.546 92.2073 309.531 96.3045 309.531H116.665C119.471 309.531 121.902 311.475 122.518 314.211L126.136 330.255C127.542 336.496 136.435 336.496 137.842 330.255L141.459 314.211C142.076 311.475 144.507 309.531 147.312 309.531H167.637C171.744 309.531 174.637 313.565 173.319 317.456L147.998 392.21C147.788 392.83 147.681 393.481 147.681 394.135V437.087C147.681 440.4 144.995 443.087 141.681 443.087H121.914C118.6 443.087 115.914 440.4 115.914 437.087V394.123Z" fill="#FAFDF3"/>
<path d="M223.891 445C215.854 445 208.773 443.405 202.649 440.216C196.653 437.027 191.996 432.435 188.679 426.44C185.49 420.445 183.895 413.556 183.895 405.775V347.034C183.895 339.125 185.49 332.236 188.679 326.369C191.996 320.373 196.653 315.845 202.649 312.784C208.773 309.595 215.854 308 223.891 308C231.929 308 238.946 309.595 244.942 312.784C251.066 315.845 255.786 320.373 259.103 326.369C262.42 332.236 264.079 339.125 264.079 347.034C264.079 349.276 262.304 351.116 260.063 351.197L238.528 351.975C235.132 352.098 232.312 349.378 232.312 345.979V344.737C232.312 341.804 231.546 339.507 230.015 337.849C228.484 336.063 226.443 335.17 223.891 335.17C221.467 335.17 219.49 336.063 217.959 337.849C216.428 339.507 215.662 341.804 215.662 344.737V408.454C215.662 411.26 216.428 413.556 217.959 415.342C219.49 417 221.467 417.83 223.891 417.83C226.443 417.83 228.484 417 230.015 415.342C231.546 413.556 232.312 411.26 232.312 408.454V406.83C232.312 403.431 235.132 400.711 238.528 400.834L260.063 401.612C262.304 401.693 264.079 403.533 264.079 405.775C264.079 413.556 262.42 420.445 259.103 426.44C255.786 432.435 251.066 437.027 244.942 440.216C238.946 443.405 231.929 445 223.891 445Z" fill="#FAFDF3"/>
<path d="M275.504 315.531C275.504 312.217 278.191 309.531 281.504 309.531H301.272C304.586 309.531 307.272 312.217 307.272 315.531V410.299C307.272 413.613 309.958 416.299 313.272 416.299H343.565C346.878 416.299 349.565 418.985 349.565 422.299V437.469C349.565 440.783 346.878 443.469 343.565 443.469H281.504C278.191 443.469 275.504 440.783 275.504 437.469V315.531Z" fill="#FAFDF3"/>
<path d="M383.825 314.273C384.417 311.507 386.862 309.531 389.691 309.531H415.387C418.22 309.531 420.666 311.511 421.256 314.281L447.215 436.22C448.01 439.953 445.163 443.469 441.347 443.469H421.597C418.622 443.469 416.096 441.288 415.661 438.345L408.711 391.209C407.715 384.455 398.011 384.344 396.861 391.073L388.756 438.48C388.263 441.362 385.765 443.469 382.842 443.469H363.558C359.738 443.469 356.89 439.947 357.691 436.212L383.825 314.273ZM376.803 405.27C376.803 401.956 379.49 399.27 382.803 399.27H421.708C425.022 399.27 427.708 401.956 427.708 405.27V417.761C427.708 421.075 425.022 423.761 421.708 423.761H382.803C379.49 423.761 376.803 421.075 376.803 417.761V405.27Z" fill="#FAFDF3"/>
<path d="M457.717 315.531C457.717 312.217 460.404 309.531 463.717 309.531H487.126C489.775 309.531 492.111 311.269 492.873 313.806L501.085 341.177C503.071 347.796 512.832 346.364 512.832 339.452V315.531C512.832 312.217 515.518 309.531 518.832 309.531H538.217C541.53 309.531 544.217 312.217 544.217 315.531V437.469C544.217 440.783 541.53 443.469 538.217 443.469H514.252C511.594 443.469 509.253 441.72 508.499 439.171L500.7 412.801C498.731 406.142 488.909 407.591 488.946 414.535L489.07 437.437C489.087 440.763 486.396 443.469 483.07 443.469H463.717C460.404 443.469 457.717 440.783 457.717 437.469V315.531Z" fill="#FAFDF3"/>
<path d="M557.514 315.531C557.514 312.217 560.2 309.531 563.514 309.531H625C628.314 309.531 631 312.217 631 315.531V330.701C631 334.015 628.314 336.701 625 336.701H595.281C591.968 336.701 589.281 339.387 589.281 342.701V410.299C589.281 413.613 591.968 416.299 595.281 416.299H625C628.314 416.299 631 418.985 631 422.299V437.469C631 440.783 628.314 443.469 625 443.469H563.514C560.2 443.469 557.514 440.783 557.514 437.469V315.531ZM570.336 368.723C570.336 365.41 573.022 362.723 576.336 362.723H607.585C610.899 362.723 613.585 365.41 613.585 368.723V384.085C613.585 387.399 610.899 390.085 607.585 390.085H576.336C573.022 390.085 570.336 387.399 570.336 384.085V368.723Z" fill="#FAFDF3"/>
<path d="M82.3436 451.211C83.1028 451.215 83.8619 451.22 84.6441 451.224C85.4508 451.221 86.2576 451.218 87.0888 451.215C89.8213 451.206 92.5535 451.212 95.286 451.218C97.2531 451.215 99.2202 451.211 101.187 451.206C106.616 451.196 112.044 451.198 117.472 451.203C123.317 451.205 129.163 451.196 135.008 451.189C146.468 451.176 157.929 451.174 169.389 451.176C178.7 451.178 188.01 451.176 197.321 451.172C198.657 451.172 199.993 451.171 201.329 451.17C203.342 451.169 205.355 451.169 207.368 451.168C226.094 451.159 244.819 451.155 263.545 451.159C264.605 451.159 264.605 451.159 265.686 451.16C269.266 451.16 272.847 451.161 276.428 451.162C277.139 451.162 277.85 451.162 278.583 451.163C280.021 451.163 281.459 451.163 282.897 451.164C305.279 451.169 327.662 451.161 350.044 451.143C375.172 451.122 400.299 451.111 425.427 451.115C428.105 451.116 430.782 451.116 433.459 451.116C434.777 451.116 436.094 451.117 437.452 451.117C446.755 451.117 456.059 451.11 465.362 451.1C476.694 451.089 488.026 451.087 499.358 451.099C505.145 451.105 510.932 451.106 516.718 451.094C522.009 451.083 527.299 451.086 532.589 451.1C534.51 451.103 536.431 451.101 538.351 451.093C540.949 451.083 543.546 451.091 546.144 451.104C546.901 451.097 547.657 451.089 548.437 451.082C553.453 451.135 553.453 451.135 555.918 452.819C557.586 455.484 557.394 457.417 556.957 460.479C555.422 462.639 555.422 462.639 552.957 464.479C550.197 464.872 547.835 465.018 545.076 464.985C544.273 464.991 543.469 464.997 542.641 465.003C539.932 465.019 537.224 465.006 534.515 464.993C532.56 464.999 530.605 465.006 528.65 465.014C523.264 465.033 517.878 465.027 512.493 465.016C506.689 465.009 500.886 465.025 495.083 465.038C483.71 465.06 472.336 465.06 460.962 465.052C451.721 465.045 442.479 465.047 433.238 465.053C431.267 465.054 431.267 465.054 429.257 465.056C427.258 465.057 425.259 465.058 423.26 465.06C404.667 465.073 386.074 465.078 367.482 465.066C366.78 465.066 366.079 465.065 365.357 465.065C359.662 465.061 353.968 465.058 348.273 465.054C326.059 465.039 303.844 465.048 281.629 465.076C256.681 465.107 231.734 465.122 206.786 465.112C204.127 465.111 201.469 465.11 198.81 465.109C197.501 465.108 196.193 465.108 194.845 465.107C185.612 465.105 176.379 465.115 167.146 465.13C155.898 465.147 144.65 465.147 133.402 465.124C127.659 465.113 121.917 465.11 116.175 465.129C110.923 465.145 105.671 465.139 100.418 465.114C98.514 465.109 96.6095 465.113 94.7052 465.126C92.124 465.142 89.5447 465.128 86.9636 465.105C86.2174 465.117 85.4712 465.129 84.7024 465.142C80.7916 465.072 79.0766 464.572 75.9526 462.139C73.9569 459.479 73.9569 459.479 74.0194 456.291C75.65 451.399 77.4722 451.248 82.3436 451.211Z" fill="#1A8D5B"/>
<path d="M513.957 284.479L517.474 284.523C521.783 284.581 526.091 284.658 530.4 284.741C532.264 284.774 534.128 284.802 535.993 284.825C538.674 284.859 541.354 284.911 544.035 284.967L546.558 284.986C550.02 285.074 552.38 285.179 555.487 286.792C556.957 288.479 556.957 288.479 557.394 291.979C556.957 295.479 556.957 295.479 555.917 297.174C552.867 299.204 549.707 298.891 546.165 298.859L543.723 298.873C541.026 298.885 538.33 298.876 535.633 298.867L535.552 298.866C533.589 298.871 531.626 298.876 529.663 298.883C524.25 298.897 518.838 298.893 513.425 298.886C508.265 298.881 503.105 298.891 497.945 298.9L495.934 298.904C484.505 298.921 473.076 298.922 461.647 298.916C452.361 298.912 443.075 298.914 433.789 298.919L429.791 298.921L423.766 298.925C405.087 298.936 386.408 298.94 367.73 298.932L365.595 298.931C359.873 298.929 354.151 298.926 348.429 298.924C326.107 298.914 303.785 298.922 281.463 298.945C256.399 298.971 231.335 298.984 206.271 298.977C192.994 298.974 179.718 298.976 166.441 298.993C155.139 299.008 143.838 299.009 132.536 298.991C126.765 298.983 120.995 298.981 115.224 298.996C109.947 299.01 104.67 299.005 99.3934 298.986C97.4789 298.982 95.5644 298.985 93.6499 298.995C91.0577 299.008 88.4667 298.997 85.8746 298.979L83.5949 299.009C80.151 298.96 78.2652 298.706 75.4581 296.639C73.9569 294.479 73.9569 294.479 74.0194 291.416C74.9821 288.4 75.5412 287.403 77.9569 285.479C80.9623 285.147 83.7713 284.99 86.7811 284.967L89.3914 284.913C92.1424 284.858 94.8931 284.825 97.6444 284.791C99.5096 284.758 101.375 284.724 103.24 284.688C107.812 284.603 112.384 284.536 116.957 284.479L215.957 285.479H415.957L513.957 284.479Z" fill="#1A8D5B"/>
<path d="M400 30C400 46.5685 386.569 60 370 60C353.431 60 340 46.5685 340 30C340 13.4315 353.431 0 370 0C386.569 0 400 13.4315 400 30Z" fill="#FAFDF3"/>
<path fill-rule="evenodd" clip-rule="evenodd" d="M269.195 167.803C282.297 178.327 290.254 192.466 292.337 209.146C293.795 225.939 289.097 241.899 278.277 254.893C277.785 255.47 277.291 256.046 276.794 256.619L275.698 257.89C267.567 266.577 256.766 271.795 245.354 274.566L243.709 274.984C228.875 278.098 212.608 274.729 199.878 266.714C197.564 265.112 195.34 263.422 193.141 261.667L191.81 260.622C181.046 251.672 174.152 237.85 172.368 224.092C171.768 215.904 171.64 207.331 174.052 199.415L174.651 197.448C177.189 189.833 180.753 183.189 185.842 176.982L186.945 175.62C207.095 151.829 244.912 149.011 269.195 167.803ZM196.395 217.197C196.245 207.132 199.808 197.751 206.791 190.477C216.151 181.718 228.219 178.051 240.779 180.825C250.977 183.452 258.728 190.016 264.057 198.995C267.903 206.56 269.471 216.268 267.105 224.587L266.689 225.774C264.907 231.022 262.273 235.489 258.829 239.795C251.903 247.326 242.472 250.884 232.441 251.572C224.057 251.572 214.871 248.441 208.78 242.551L207.738 241.477C200.914 234.963 196.979 226.644 196.395 217.197Z" fill="#FAFDF3"/>
<path fill-rule="evenodd" clip-rule="evenodd" d="M308.235 49.6752L309.408 49.9397C314.469 51.1346 319.146 52.9742 323.85 55.1783L325.27 55.8411C331.797 59.0176 337.158 63.0887 342.21 68.2722C342.743 68.8102 343.277 69.3476 343.811 69.8845C345.198 71.2823 346.579 72.6864 347.959 74.0924C349.962 76.1322 351.974 78.1633 353.987 80.1944L354.616 80.8297C355.382 81.6042 356.144 82.3813 356.907 83.1584C358.93 85.2109 360.946 87.2339 363.141 89.1038C366.589 92.0589 369.736 95.3382 372.94 98.5523C373.651 99.2636 374.362 99.9747 375.073 100.686C376.931 102.544 378.788 104.404 380.644 106.264C382.378 108.001 384.113 109.737 385.848 111.473L386.346 111.972C389.503 115.13 392.659 118.29 395.814 121.451C396.787 122.426 396.912 123.966 396.065 125.052C393.726 128.05 391.207 130.782 388.486 133.51C387.598 134.404 386.721 135.308 385.844 136.212C385.279 136.782 384.713 137.351 384.147 137.92L382.751 139.335C382.656 139.431 382.553 139.521 382.445 139.603C381.482 140.33 381.251 140.485 380.721 140.501C380.377 140.511 380.035 140.426 379.728 140.271C378.223 139.507 377.152 138.359 375.957 137.135L375.065 136.242C374.165 135.339 373.27 134.432 372.376 133.523L372.197 133.342L372.159 133.304C371.481 132.622 370.803 131.941 370.124 131.26C368.335 129.463 366.551 127.662 364.769 125.859C361.925 122.985 359.074 120.118 356.222 117.252C355.232 116.255 354.244 115.255 353.256 114.256C350.45 111.424 347.634 108.644 344.596 106.058C342.954 104.631 341.428 103.093 339.898 101.55L339.728 101.378L338.69 100.339C337.613 99.2606 336.539 98.1803 335.464 97.0999C334.728 96.3611 333.991 95.6225 333.254 94.884C332.074 93.7014 330.895 92.5181 329.716 91.3342C328.682 90.2957 327.021 90.2236 325.909 91.1786C324.517 92.375 323.139 93.5868 321.803 94.85L320.701 95.8886L319.569 96.9597C316.687 99.6728 313.784 102.355 310.829 104.989C308.543 107.055 306.296 109.162 304.053 111.274C301.998 113.204 299.899 115.052 297.743 116.869C294.82 119.488 293.459 122.055 292.855 125.831C292.813 126.094 292.813 126.363 292.857 126.625C294.167 134.348 300.917 138.537 306.711 143.195C308.295 144.504 309.81 145.868 311.323 147.259C313.827 149.561 316.416 151.721 319.064 153.855C321.093 155.528 323.034 157.288 324.97 159.067C326.063 160.092 326.137 160.161 327.148 160.759C327.304 160.851 327.452 160.958 327.588 161.079C328.364 161.772 328.454 161.903 328.654 162.774C328.7 162.977 328.722 163.186 328.721 163.395L328.716 164.555L328.726 166.249L328.701 168.106L328.702 170.063C328.701 172.202 328.683 174.341 328.666 176.481C328.661 177.962 328.658 179.443 328.656 180.925C328.649 184.428 328.631 187.932 328.608 191.435C328.583 195.424 328.571 199.413 328.559 203.402C328.539 210.678 328.504 217.954 328.462 225.23C328.454 226.772 327.2 228.017 325.656 228.017H306.573C305.014 228.017 303.753 226.748 303.766 225.191L303.838 216.172C303.844 213.69 303.848 211.209 303.845 208.727C303.842 204.791 303.845 200.855 303.888 196.919C303.922 193.744 303.926 190.571 303.909 187.396C303.908 186.187 303.918 184.977 303.939 183.769C304.253 177.409 304.265 177.163 302.126 171.91C301.95 171.478 301.67 171.093 301.303 170.807C299.999 169.794 298.688 168.974 297.24 168.143C297.085 168.054 296.938 167.951 296.802 167.834C295.917 167.07 295.047 166.289 294.199 165.485C292.316 163.771 290.395 162.137 288.409 160.543C284.756 157.584 281.31 154.435 277.917 151.184L276.865 150.199C272.944 146.133 269.373 138.966 268.972 133.172C268.932 132.603 268.449 132.153 267.88 132.195C258.606 132.573 250.491 128.905 243.494 123.038C236.076 115.932 231.98 106.646 231.704 96.3989C231.91 86.4094 235.194 77.2886 241.986 69.8649L243.308 68.3883C259.473 51.2629 285.609 44.5313 308.235 49.6752ZM256.372 97.6717C256.155 93.2978 257.595 89.7944 260.267 86.3741C270.363 75.5139 288.049 69.6027 302.438 73.6526L303.919 74.1061C305.118 74.4716 305.496 75.9766 304.601 76.8533C303.508 77.9229 302.401 78.9758 301.273 80.0135C300.653 80.5807 300.035 81.1484 299.416 81.7165L298.429 82.6236C297.146 83.802 295.863 84.9818 294.583 86.1638C291.653 88.8686 288.72 91.5701 285.777 94.2607L285.732 94.3022C284.309 95.5984 282.887 96.8942 281.487 98.2142C278.122 101.402 274.652 105.342 270.379 107.297C270.166 107.395 269.94 107.46 269.709 107.492C266.444 107.944 263.862 107.379 261.109 105.442C258.352 103.306 256.91 101.137 256.372 97.6717Z" fill="#FAFDF3"/>
<path fill-rule="evenodd" clip-rule="evenodd" d="M439.049 169.692L440.169 170.546C443.202 172.967 445.539 175.996 447.898 179.052L448.032 179.226L449.089 180.595C453.781 186.974 456.757 194.028 458.699 201.659L459.018 202.898C459.961 206.998 460.016 211.031 459.997 215.224L459.988 217.416C459.811 231.234 454.931 244.476 445.786 254.937L444.907 256.059C435.787 267.383 420.658 274.057 406.486 275.687C391.101 276.929 374.83 273.285 362.751 263.253L361.571 262.228L360.216 261.097C348.75 251.24 340.892 236.711 339.728 221.509L339.675 220.166L339.587 218.245C339.196 201.776 344.629 187.154 355.395 174.739L356.49 173.473C378.379 150.042 414.892 150.596 439.049 169.692ZM365.501 205.584C367.254 199.982 370.336 194.829 374.284 190.495C387.435 178.016 409.72 175.57 423.41 188.808L424.452 189.881C425.78 191.149 427.034 192.433 428.246 193.814C434.332 201.917 436.255 211.008 435.54 221.007C433.57 230.19 429.385 237.67 422.206 243.72C414.576 249.55 405.121 252.492 395.52 251.237L394.134 251.011C392.881 250.837 391.676 250.625 390.447 250.323C380.706 247.231 373.329 241.087 368.133 232.364C364.258 224.741 362.74 215.062 365.122 206.695L365.501 205.584Z" fill="#FAFDF3"/>
</svg>
