<svg width="12" height="9" viewBox="0 0 12 9" fill="none" xmlns="http://www.w3.org/2000/svg">
<path d="M1.84782 0.732098H4.10382V9.0001H1.84782V0.732098ZM0.21582 0.600098H5.77182V2.5321H0.21582V0.600098Z" fill="#1A8D5B"/>
<path d="M6.3001 0.600098H9.1801C9.6601 0.600098 10.0841 0.716098 10.4521 0.948098C10.8281 1.1721 11.1201 1.4881 11.3281 1.8961C11.5361 2.2961 11.6401 2.7561 11.6401 3.2761C11.6401 3.7721 11.5401 4.2081 11.3401 4.5841C11.1481 4.9601 10.8721 5.2521 10.5121 5.4601C10.1601 5.6681 9.7561 5.7721 9.3001 5.7721H8.3641V4.0561H8.7841C8.9601 4.0561 9.1041 3.9921 9.2161 3.8641C9.3281 3.7281 9.3841 3.5401 9.3841 3.3001C9.3841 3.0521 9.3281 2.8641 9.2161 2.7361C9.1121 2.6001 8.9681 2.5321 8.7841 2.5321H8.5561V9.0001H6.3001V0.600098ZM8.4121 4.8121H10.5601L11.7481 9.0001H9.4201L8.4121 4.8121Z" fill="#1A8D5B"/>
</svg>
